<svg id="Layer_1" data-name="Layer 1" xmlns="http://www.w3.org/2000/svg" viewBox="0 0 711.05 512.95"><defs><style>.cls-1{fill:#fff;}</style></defs><title>logo_shadow</title><path d="M855.62,123V393.76H689.1V123ZM740.34,137.8,801.58,159V366.94l-46.43,12h86.06V137.8H740.34Zm46.43,31.6-82.86-28.8v236l82.86-21.2Z" transform="translate(-169 -119)"/><path d="M216.86,337.61H206.48v-55.3h29.91c2.82,0,5.1-3.93,5.1-8.76V240.62c0-4.83-2.29-8.76-5.1-8.76H206.48c-2.82,0-5.28,3.93-5.28,8.76V388.38H169V240.62c0-35.35,16.89-64.06,37.48-64.06h28.86c20.59,0,38.36,28.71,38.36,64.06v32.94c0,17.22-4,30.52-12.85,39.28,7.21,3.63,9.33,14.5,10.56,26L276,388.4H241.15L236.27,343q-1.06-5-4.22-5.44Z" transform="translate(-169 -119)"/><path d="M384.37,324.32c0,35.35-16.72,64.06-37.3,64.06h-29c-20.59,0-37.3-28.71-37.3-64.06V240.94c0-35.35,16.72-64.06,37.3-64.06h29c20.59,0,37.3,28.71,37.3,64.06Zm-32.2-83.38c0-4.83-2.29-8.76-5.1-8.76h-29c-2.82,0-5.1,3.93-5.1,8.76v83.4c0,4.83,2.29,8.76,5.1,8.76h29c2.82,0,5.1-3.93,5.1-8.76Z" transform="translate(-169 -119)"/><path d="M495.05,324.32c0,35.35-16.72,64.06-37.3,64.06h-29c-20.59,0-37.3-28.71-37.3-64.06V240.94c0-35.35,16.72-64.06,37.3-64.06h29c20.59,0,37.3,28.71,37.3,64.06Zm-32.2-83.38c0-4.83-2.29-8.76-5.1-8.76h-29c-2.82,0-5.1,3.93-5.1,8.76v83.4c0,4.83,2.29,8.76,5.1,8.76h29c2.82,0,5.1-3.93,5.1-8.76Z" transform="translate(-169 -119)"/><path d="M572.82,323.94h1.58l5.81-101.83c3.7-68,64.93-61.34,64.93,5.44V390.38h-32.2V254.1l.7-35.05-1.58-.3-2.79,34.14L604,321.48c-4.75,64.36-56,64.36-60.88,0L538,252.89l-3-34.15-1.58.3.88,35.05V390.38h-32.2V227.51c0-66.78,61.06-73.43,64.93-5.44Z" transform="translate(-169 -119)"/><path d="M319,631.94c-20.59,0-37.3-28.71-37.3-64.06v-83.7c0-35.35,16.72-64.06,37.3-64.06h50.15v55.3H319c-2.82,0-5.1,3.93-5.1,8.76v14.2h55.25v55.3H313.85v14.2c0,4.83,2.29,8.76,5.1,8.76H369.1v55.3Z" transform="translate(-169 -119)"/><path d="M458.49,420.12v55.3h-27.1c-3.52,0-5.81,5.44-4.75,11.18l13.9,76.15c7,39.28-13,69.2-34.84,69.2H375.27V576.64h27.27c3.7,0,5.81-5.44,4.75-11.18l-13.73-76.15c-7-39.58,12.85-69.2,34.84-69.2Z" transform="translate(-169 -119)"/><path d="M501.42,631.94c-20.59,0-37.3-28.71-37.3-64.06v-83.7c0-35.35,16.72-64.06,37.3-64.06h50.15v55.3H501.42c-2.82,0-5.1,3.93-5.1,8.76v83.7c0,4.83,2.29,8.76,5.1,8.76h50.15v55.3Z" transform="translate(-169 -119)"/><path d="M590.62,515.3h34.14v55.3H590.62v61.34h-32.2V484.18c0-35.35,16.72-64.06,37.3-64.06h29c20.59,0,37.3,28.71,37.3,64.06V631.94h-32.2V484.18c0-4.83-2.29-8.76-5.1-8.76h-29c-2.82,0-5.1,3.93-5.1,8.76Z" transform="translate(-169 -119)"/><path d="M706.58,597.79v-55.3h28.86c2.82,0,5.1-3.93,5.1-8.76V484.18c0-4.83-2.29-8.76-5.1-8.76H706.58c-2.82,0-5.1,3.93-5.1,8.76V631.94H669.27V484.18c0-35.35,16.72-64.06,37.3-64.06h28.86c20.59,0,37.3,28.71,37.3,64.06v49.56c0,35.35-16.72,64.06-37.3,64.06Z" transform="translate(-169 -119)"/><path d="M816.9,631.94c-20.59,0-37.3-28.71-37.3-64.06v-83.7c0-35.35,16.72-64.06,37.3-64.06h50.15v55.3H816.9c-2.82,0-5.1,3.93-5.1,8.76v14.2h55.25v55.3H811.8v14.2c0,4.83,2.29,8.76,5.1,8.76h50.15v55.3Z" transform="translate(-169 -119)"/><path class="cls-1" d="M868.62,119V389.76H702.1V119ZM753.34,133.8,814.58,155V362.94l-46.43,12h86.06V133.8H753.34Zm46.43,31.6-82.86-28.8v236l82.86-21.2Z" transform="translate(-169 -119)"/><path class="cls-1" d="M229.86,333.61H219.48v-55.3h29.91c2.82,0,5.1-3.93,5.1-8.76V236.62c0-4.83-2.29-8.76-5.1-8.76H219.48c-2.82,0-5.28,3.93-5.28,8.76V384.38H182V236.62c0-35.35,16.89-64.06,37.48-64.06h28.86c20.59,0,38.36,28.71,38.36,64.06v32.94c0,17.22-4,30.52-12.85,39.28,7.21,3.63,9.33,14.5,10.56,26L289,384.4H254.15L249.27,339q-1.06-5-4.22-5.44Z" transform="translate(-169 -119)"/><path class="cls-1" d="M397.37,320.32c0,35.35-16.72,64.06-37.3,64.06h-29c-20.59,0-37.3-28.71-37.3-64.06V236.94c0-35.35,16.72-64.06,37.3-64.06h29c20.59,0,37.3,28.71,37.3,64.06Zm-32.2-83.38c0-4.83-2.29-8.76-5.1-8.76h-29c-2.82,0-5.1,3.93-5.1,8.76v83.4c0,4.83,2.29,8.76,5.1,8.76h29c2.82,0,5.1-3.93,5.1-8.76Z" transform="translate(-169 -119)"/><path class="cls-1" d="M508.05,320.32c0,35.35-16.72,64.06-37.3,64.06h-29c-20.59,0-37.3-28.71-37.3-64.06V236.94c0-35.35,16.72-64.06,37.3-64.06h29c20.59,0,37.3,28.71,37.3,64.06Zm-32.2-83.38c0-4.83-2.29-8.76-5.1-8.76h-29c-2.82,0-5.1,3.93-5.1,8.76v83.4c0,4.83,2.29,8.76,5.1,8.76h29c2.82,0,5.1-3.93,5.1-8.76Z" transform="translate(-169 -119)"/><path class="cls-1" d="M585.82,319.94h1.58l5.81-101.83c3.7-68,64.93-61.34,64.93,5.44V386.38h-32.2V250.1l.7-35.05-1.58-.3-2.79,34.14L617,317.48c-4.75,64.36-56,64.36-60.88,0L551,248.89l-3-34.15-1.58.3.88,35.05V386.38h-32.2V223.51c0-66.78,61.06-73.43,64.93-5.44Z" transform="translate(-169 -119)"/><path class="cls-1" d="M332,627.94c-20.59,0-37.3-28.71-37.3-64.06v-83.7c0-35.35,16.72-64.06,37.3-64.06h50.15v55.3H332c-2.82,0-5.1,3.93-5.1,8.76v14.2h55.25v55.3H326.85v14.2c0,4.83,2.29,8.76,5.1,8.76H382.1v55.3Z" transform="translate(-169 -119)"/><path class="cls-1" d="M471.49,416.12v55.3h-27.1c-3.52,0-5.81,5.44-4.75,11.18l13.9,76.15c7,39.28-13,69.2-34.84,69.2H388.27V572.64h27.27c3.7,0,5.81-5.44,4.75-11.18l-13.73-76.15c-7-39.58,12.85-69.2,34.84-69.2Z" transform="translate(-169 -119)"/><path class="cls-1" d="M514.42,627.94c-20.59,0-37.3-28.71-37.3-64.06v-83.7c0-35.35,16.72-64.06,37.3-64.06h50.15v55.3H514.42c-2.82,0-5.1,3.93-5.1,8.76v83.7c0,4.83,2.29,8.76,5.1,8.76h50.15v55.3Z" transform="translate(-169 -119)"/><path class="cls-1" d="M603.62,511.3h34.14v55.3H603.62v61.34h-32.2V480.18c0-35.35,16.72-64.06,37.3-64.06h29c20.59,0,37.3,28.71,37.3,64.06V627.94h-32.2V480.18c0-4.83-2.29-8.76-5.1-8.76h-29c-2.82,0-5.1,3.93-5.1,8.76Z" transform="translate(-169 -119)"/><path class="cls-1" d="M719.58,593.79v-55.3h28.86c2.82,0,5.1-3.93,5.1-8.76V480.18c0-4.83-2.29-8.76-5.1-8.76H719.58c-2.82,0-5.1,3.93-5.1,8.76V627.94H682.27V480.18c0-35.35,16.72-64.06,37.3-64.06h28.86c20.59,0,37.3,28.71,37.3,64.06v49.56c0,35.35-16.72,64.06-37.3,64.06Z" transform="translate(-169 -119)"/><path class="cls-1" d="M829.9,627.94c-20.59,0-37.3-28.71-37.3-64.06v-83.7c0-35.35,16.72-64.06,37.3-64.06h50.15v55.3H829.9c-2.82,0-5.1,3.93-5.1,8.76v14.2h55.25v55.3H824.8v14.2c0,4.83,2.29,8.76,5.1,8.76h50.15v55.3Z" transform="translate(-169 -119)"/></svg>