<svg id="Layer_1" data-name="Layer 1" xmlns="http://www.w3.org/2000/svg" viewBox="0 0 699.04 508.94"><defs><style>.cls-1{fill:#fff;}.cls-2{fill:#fdb12b;}</style></defs><title>logo_yellow</title><path class="cls-1" d="M850.35,130.06V400.82H683.83V130.06Zm-115.28,14.8,61.24,21.2V374l-46.43,12h86.06V144.86H735.07Zm46.43,31.6-82.86-28.8v236l82.86-21.2Z" transform="translate(-162.73 -130.06)"/><path class="cls-1" d="M211.59,344.67H201.21v-55.3h29.91c2.82,0,5.1-3.93,5.1-8.76V247.68c0-4.83-2.29-8.76-5.1-8.76H201.21c-2.82,0-5.28,3.93-5.28,8.76V395.44h-32.2V247.68c0-35.35,16.89-64.06,37.48-64.06h28.86c20.59,0,38.36,28.71,38.36,64.06v32.94c0,17.22-4,30.52-12.85,39.28,7.21,3.63,9.33,14.5,10.56,26l4.58,49.56H235.88L231,350.11q-1.06-5-4.22-5.44Z" transform="translate(-162.73 -130.06)"/><path class="cls-1" d="M379.1,331.38c0,35.35-16.72,64.06-37.3,64.06h-29c-20.59,0-37.3-28.71-37.3-64.06V248c0-35.35,16.72-64.06,37.3-64.06h29c20.59,0,37.3,28.71,37.3,64.06ZM346.9,248c0-4.83-2.29-8.76-5.1-8.76h-29c-2.82,0-5.1,3.93-5.1,8.76v83.4c0,4.83,2.29,8.76,5.1,8.76h29c2.82,0,5.1-3.93,5.1-8.76Z" transform="translate(-162.73 -130.06)"/><path class="cls-1" d="M489.78,331.38c0,35.35-16.72,64.06-37.3,64.06h-29c-20.59,0-37.3-28.71-37.3-64.06V248c0-35.35,16.72-64.06,37.3-64.06h29c20.59,0,37.3,28.71,37.3,64.06ZM457.58,248c0-4.83-2.29-8.76-5.1-8.76h-29c-2.82,0-5.1,3.93-5.1,8.76v83.4c0,4.83,2.29,8.76,5.1,8.76h29c2.82,0,5.1-3.93,5.1-8.76Z" transform="translate(-162.73 -130.06)"/><path class="cls-1" d="M567.55,331h1.58l5.81-101.83c3.7-68,64.93-61.34,64.93,5.44V397.44h-32.2V261.16l.7-35.05-1.58-.3L604,259.95l-5.28,68.59c-4.75,64.36-56,64.36-60.88,0l-5.1-68.59-3-34.15-1.58.3.88,35.05V397.44h-32.2V234.57c0-66.78,61.06-73.43,64.93-5.44Z" transform="translate(-162.73 -130.06)"/><path class="cls-1" d="M313.69,639c-20.59,0-37.3-28.71-37.3-64.06v-83.7c0-35.35,16.72-64.06,37.3-64.06h50.15v55.3H313.69c-2.82,0-5.1,3.93-5.1,8.76v14.2h55.25v55.3H308.58v14.2c0,4.83,2.29,8.76,5.1,8.76h50.15V639Z" transform="translate(-162.73 -130.06)"/><path class="cls-1" d="M453.22,427.18v55.3h-27.1c-3.52,0-5.81,5.44-4.75,11.18l13.9,76.15c7,39.28-13,69.2-34.84,69.2H370V583.7h27.27c3.7,0,5.81-5.44,4.75-11.18l-13.73-76.15c-7-39.58,12.85-69.2,34.84-69.2Z" transform="translate(-162.73 -130.06)"/><path class="cls-1" d="M496.15,639c-20.59,0-37.3-28.71-37.3-64.06v-83.7c0-35.35,16.72-64.06,37.3-64.06H546.3v55.3H496.15c-2.82,0-5.1,3.93-5.1,8.76v83.7c0,4.83,2.29,8.76,5.1,8.76H546.3V639Z" transform="translate(-162.73 -130.06)"/><path class="cls-1" d="M585.35,522.36h34.14v55.3H585.35V639h-32.2V491.24c0-35.35,16.72-64.06,37.3-64.06h29c20.59,0,37.3,28.71,37.3,64.06V639h-32.2V491.24c0-4.83-2.29-8.76-5.1-8.76h-29c-2.82,0-5.1,3.93-5.1,8.76Z" transform="translate(-162.73 -130.06)"/><path class="cls-1" d="M701.31,604.85v-55.3h28.86c2.82,0,5.1-3.93,5.1-8.76V491.24c0-4.83-2.29-8.76-5.1-8.76H701.31c-2.82,0-5.1,3.93-5.1,8.76V639H664V491.24c0-35.35,16.72-64.06,37.3-64.06h28.86c20.59,0,37.3,28.71,37.3,64.06v49.56c0,35.35-16.72,64.06-37.3,64.06Z" transform="translate(-162.73 -130.06)"/><path class="cls-1" d="M811.63,639c-20.59,0-37.3-28.71-37.3-64.06v-83.7c0-35.35,16.72-64.06,37.3-64.06h50.15v55.3H811.63c-2.82,0-5.1,3.93-5.1,8.76v14.2h55.25v55.3H806.53v14.2c0,4.83,2.29,8.76,5.1,8.76h50.15V639Z" transform="translate(-162.73 -130.06)"/><path class="cls-2" d="M849.35,130.06V400.82H682.83V130.06Zm-115.28,14.8,61.24,21.2V374l-46.43,12h86.06V144.86H734.07Zm46.43,31.6-82.86-28.8v236l82.86-21.2Z" transform="translate(-162.73 -130.06)"/><path class="cls-1" d="M210.59,344.67H200.21v-55.3h29.91c2.82,0,5.1-3.93,5.1-8.76V247.68c0-4.83-2.29-8.76-5.1-8.76H200.21c-2.82,0-5.28,3.93-5.28,8.76V395.44h-32.2V247.68c0-35.35,16.89-64.06,37.48-64.06h28.86c20.59,0,38.36,28.71,38.36,64.06v32.94c0,17.22-4,30.52-12.85,39.28,7.21,3.63,9.33,14.5,10.56,26l4.58,49.56H234.88L230,350.11q-1.06-5-4.22-5.44Z" transform="translate(-162.73 -130.06)"/><path class="cls-1" d="M378.1,331.38c0,35.35-16.72,64.06-37.3,64.06h-29c-20.59,0-37.3-28.71-37.3-64.06V248c0-35.35,16.72-64.06,37.3-64.06h29c20.59,0,37.3,28.71,37.3,64.06ZM345.9,248c0-4.83-2.29-8.76-5.1-8.76h-29c-2.82,0-5.1,3.93-5.1,8.76v83.4c0,4.83,2.29,8.76,5.1,8.76h29c2.82,0,5.1-3.93,5.1-8.76Z" transform="translate(-162.73 -130.06)"/><path class="cls-1" d="M488.78,331.38c0,35.35-16.72,64.06-37.3,64.06h-29c-20.59,0-37.3-28.71-37.3-64.06V248c0-35.35,16.72-64.06,37.3-64.06h29c20.59,0,37.3,28.71,37.3,64.06ZM456.58,248c0-4.83-2.29-8.76-5.1-8.76h-29c-2.82,0-5.1,3.93-5.1,8.76v83.4c0,4.83,2.29,8.76,5.1,8.76h29c2.82,0,5.1-3.93,5.1-8.76Z" transform="translate(-162.73 -130.06)"/><path class="cls-1" d="M566.55,331h1.58l5.81-101.83c3.7-68,64.93-61.34,64.93,5.44V397.44h-32.2V261.16l.7-35.05-1.58-.3L603,259.95l-5.28,68.59c-4.75,64.36-56,64.36-60.88,0l-5.1-68.59-3-34.15-1.58.3.88,35.05V397.44h-32.2V234.57c0-66.78,61.06-73.43,64.93-5.44Z" transform="translate(-162.73 -130.06)"/><path class="cls-1" d="M312.69,639c-20.59,0-37.3-28.71-37.3-64.06v-83.7c0-35.35,16.72-64.06,37.3-64.06h50.15v55.3H312.69c-2.82,0-5.1,3.93-5.1,8.76v14.2h55.25v55.3H307.58v14.2c0,4.83,2.29,8.76,5.1,8.76h50.15V639Z" transform="translate(-162.73 -130.06)"/><path class="cls-1" d="M452.22,427.18v55.3h-27.1c-3.52,0-5.81,5.44-4.75,11.18l13.9,76.15c7,39.28-13,69.2-34.84,69.2H369V583.7h27.27c3.7,0,5.81-5.44,4.75-11.18l-13.73-76.15c-7-39.58,12.85-69.2,34.84-69.2Z" transform="translate(-162.73 -130.06)"/><path class="cls-1" d="M495.15,639c-20.59,0-37.3-28.71-37.3-64.06v-83.7c0-35.35,16.72-64.06,37.3-64.06H545.3v55.3H495.15c-2.82,0-5.1,3.93-5.1,8.76v83.7c0,4.83,2.29,8.76,5.1,8.76H545.3V639Z" transform="translate(-162.73 -130.06)"/><path class="cls-1" d="M584.35,522.36h34.14v55.3H584.35V639h-32.2V491.24c0-35.35,16.72-64.06,37.3-64.06h29c20.59,0,37.3,28.71,37.3,64.06V639h-32.2V491.24c0-4.83-2.29-8.76-5.1-8.76h-29c-2.82,0-5.1,3.93-5.1,8.76Z" transform="translate(-162.73 -130.06)"/><path class="cls-1" d="M700.31,604.85v-55.3h28.86c2.82,0,5.1-3.93,5.1-8.76V491.24c0-4.83-2.29-8.76-5.1-8.76H700.31c-2.82,0-5.1,3.93-5.1,8.76V639H663V491.24c0-35.35,16.72-64.06,37.3-64.06h28.86c20.59,0,37.3,28.71,37.3,64.06v49.56c0,35.35-16.72,64.06-37.3,64.06Z" transform="translate(-162.73 -130.06)"/><path class="cls-1" d="M810.63,639c-20.59,0-37.3-28.71-37.3-64.06v-83.7c0-35.35,16.72-64.06,37.3-64.06h50.15v55.3H810.63c-2.82,0-5.1,3.93-5.1,8.76v14.2h55.25v55.3H805.53v14.2c0,4.83,2.29,8.76,5.1,8.76h50.15V639Z" transform="translate(-162.73 -130.06)"/></svg>